<svg xmlns="http://www.w3.org/2000/svg" width="418" height="508" viewBox="0 0 418 508" role="img" aria-label="Godagama gate QR code">
  <rect width="418" height="508" rx="28" fill="#ffffff"/>
  <rect x="12" y="12" width="394" height="484" rx="22" fill="#f8fafc" stroke="#d7deea"/>
  <text x="209.0" y="418" text-anchor="middle" font-family="Arial, Helvetica, sans-serif" font-size="28" font-weight="700" fill="#111827">Godagama</text>
  <text x="209.0" y="448" text-anchor="middle" font-family="Arial, Helvetica, sans-serif" font-size="16" fill="#475569">E01-011 | E01</text>
  <text x="209.0" y="474" text-anchor="middle" font-family="Arial, Helvetica, sans-serif" font-size="12" fill="#64748b">HTP_GATE::E01-011::Godagama::E01</text>
  <rect x="24" y="24" width="370" height="370" rx="16" fill="#ffffff"/>
  <rect x="64" y="64" width="10" height="10" fill="#111111"/>
  <rect x="74" y="64" width="10" height="10" fill="#111111"/>
  <rect x="84" y="64" width="10" height="10" fill="#111111"/>
  <rect x="94" y="64" width="10" height="10" fill="#111111"/>
  <rect x="104" y="64" width="10" height="10" fill="#111111"/>
  <rect x="114" y="64" width="10" height="10" fill="#111111"/>
  <rect x="124" y="64" width="10" height="10" fill="#111111"/>
  <rect x="144" y="64" width="10" height="10" fill="#111111"/>
  <rect x="184" y="64" width="10" height="10" fill="#111111"/>
  <rect x="194" y="64" width="10" height="10" fill="#111111"/>
  <rect x="204" y="64" width="10" height="10" fill="#111111"/>
  <rect x="214" y="64" width="10" height="10" fill="#111111"/>
  <rect x="244" y="64" width="10" height="10" fill="#111111"/>
  <rect x="254" y="64" width="10" height="10" fill="#111111"/>
  <rect x="264" y="64" width="10" height="10" fill="#111111"/>
  <rect x="284" y="64" width="10" height="10" fill="#111111"/>
  <rect x="294" y="64" width="10" height="10" fill="#111111"/>
  <rect x="304" y="64" width="10" height="10" fill="#111111"/>
  <rect x="314" y="64" width="10" height="10" fill="#111111"/>
  <rect x="324" y="64" width="10" height="10" fill="#111111"/>
  <rect x="334" y="64" width="10" height="10" fill="#111111"/>
  <rect x="344" y="64" width="10" height="10" fill="#111111"/>
  <rect x="64" y="74" width="10" height="10" fill="#111111"/>
  <rect x="124" y="74" width="10" height="10" fill="#111111"/>
  <rect x="144" y="74" width="10" height="10" fill="#111111"/>
  <rect x="174" y="74" width="10" height="10" fill="#111111"/>
  <rect x="184" y="74" width="10" height="10" fill="#111111"/>
  <rect x="194" y="74" width="10" height="10" fill="#111111"/>
  <rect x="224" y="74" width="10" height="10" fill="#111111"/>
  <rect x="234" y="74" width="10" height="10" fill="#111111"/>
  <rect x="264" y="74" width="10" height="10" fill="#111111"/>
  <rect x="284" y="74" width="10" height="10" fill="#111111"/>
  <rect x="344" y="74" width="10" height="10" fill="#111111"/>
  <rect x="64" y="84" width="10" height="10" fill="#111111"/>
  <rect x="84" y="84" width="10" height="10" fill="#111111"/>
  <rect x="94" y="84" width="10" height="10" fill="#111111"/>
  <rect x="104" y="84" width="10" height="10" fill="#111111"/>
  <rect x="124" y="84" width="10" height="10" fill="#111111"/>
  <rect x="154" y="84" width="10" height="10" fill="#111111"/>
  <rect x="174" y="84" width="10" height="10" fill="#111111"/>
  <rect x="184" y="84" width="10" height="10" fill="#111111"/>
  <rect x="224" y="84" width="10" height="10" fill="#111111"/>
  <rect x="244" y="84" width="10" height="10" fill="#111111"/>
  <rect x="254" y="84" width="10" height="10" fill="#111111"/>
  <rect x="264" y="84" width="10" height="10" fill="#111111"/>
  <rect x="284" y="84" width="10" height="10" fill="#111111"/>
  <rect x="304" y="84" width="10" height="10" fill="#111111"/>
  <rect x="314" y="84" width="10" height="10" fill="#111111"/>
  <rect x="324" y="84" width="10" height="10" fill="#111111"/>
  <rect x="344" y="84" width="10" height="10" fill="#111111"/>
  <rect x="64" y="94" width="10" height="10" fill="#111111"/>
  <rect x="84" y="94" width="10" height="10" fill="#111111"/>
  <rect x="94" y="94" width="10" height="10" fill="#111111"/>
  <rect x="104" y="94" width="10" height="10" fill="#111111"/>
  <rect x="124" y="94" width="10" height="10" fill="#111111"/>
  <rect x="144" y="94" width="10" height="10" fill="#111111"/>
  <rect x="154" y="94" width="10" height="10" fill="#111111"/>
  <rect x="164" y="94" width="10" height="10" fill="#111111"/>
  <rect x="174" y="94" width="10" height="10" fill="#111111"/>
  <rect x="204" y="94" width="10" height="10" fill="#111111"/>
  <rect x="214" y="94" width="10" height="10" fill="#111111"/>
  <rect x="234" y="94" width="10" height="10" fill="#111111"/>
  <rect x="284" y="94" width="10" height="10" fill="#111111"/>
  <rect x="304" y="94" width="10" height="10" fill="#111111"/>
  <rect x="314" y="94" width="10" height="10" fill="#111111"/>
  <rect x="324" y="94" width="10" height="10" fill="#111111"/>
  <rect x="344" y="94" width="10" height="10" fill="#111111"/>
  <rect x="64" y="104" width="10" height="10" fill="#111111"/>
  <rect x="84" y="104" width="10" height="10" fill="#111111"/>
  <rect x="94" y="104" width="10" height="10" fill="#111111"/>
  <rect x="104" y="104" width="10" height="10" fill="#111111"/>
  <rect x="124" y="104" width="10" height="10" fill="#111111"/>
  <rect x="184" y="104" width="10" height="10" fill="#111111"/>
  <rect x="204" y="104" width="10" height="10" fill="#111111"/>
  <rect x="224" y="104" width="10" height="10" fill="#111111"/>
  <rect x="234" y="104" width="10" height="10" fill="#111111"/>
  <rect x="254" y="104" width="10" height="10" fill="#111111"/>
  <rect x="284" y="104" width="10" height="10" fill="#111111"/>
  <rect x="304" y="104" width="10" height="10" fill="#111111"/>
  <rect x="314" y="104" width="10" height="10" fill="#111111"/>
  <rect x="324" y="104" width="10" height="10" fill="#111111"/>
  <rect x="344" y="104" width="10" height="10" fill="#111111"/>
  <rect x="64" y="114" width="10" height="10" fill="#111111"/>
  <rect x="124" y="114" width="10" height="10" fill="#111111"/>
  <rect x="174" y="114" width="10" height="10" fill="#111111"/>
  <rect x="184" y="114" width="10" height="10" fill="#111111"/>
  <rect x="194" y="114" width="10" height="10" fill="#111111"/>
  <rect x="214" y="114" width="10" height="10" fill="#111111"/>
  <rect x="224" y="114" width="10" height="10" fill="#111111"/>
  <rect x="234" y="114" width="10" height="10" fill="#111111"/>
  <rect x="244" y="114" width="10" height="10" fill="#111111"/>
  <rect x="254" y="114" width="10" height="10" fill="#111111"/>
  <rect x="264" y="114" width="10" height="10" fill="#111111"/>
  <rect x="284" y="114" width="10" height="10" fill="#111111"/>
  <rect x="344" y="114" width="10" height="10" fill="#111111"/>
  <rect x="64" y="124" width="10" height="10" fill="#111111"/>
  <rect x="74" y="124" width="10" height="10" fill="#111111"/>
  <rect x="84" y="124" width="10" height="10" fill="#111111"/>
  <rect x="94" y="124" width="10" height="10" fill="#111111"/>
  <rect x="104" y="124" width="10" height="10" fill="#111111"/>
  <rect x="114" y="124" width="10" height="10" fill="#111111"/>
  <rect x="124" y="124" width="10" height="10" fill="#111111"/>
  <rect x="144" y="124" width="10" height="10" fill="#111111"/>
  <rect x="164" y="124" width="10" height="10" fill="#111111"/>
  <rect x="184" y="124" width="10" height="10" fill="#111111"/>
  <rect x="204" y="124" width="10" height="10" fill="#111111"/>
  <rect x="224" y="124" width="10" height="10" fill="#111111"/>
  <rect x="244" y="124" width="10" height="10" fill="#111111"/>
  <rect x="264" y="124" width="10" height="10" fill="#111111"/>
  <rect x="284" y="124" width="10" height="10" fill="#111111"/>
  <rect x="294" y="124" width="10" height="10" fill="#111111"/>
  <rect x="304" y="124" width="10" height="10" fill="#111111"/>
  <rect x="314" y="124" width="10" height="10" fill="#111111"/>
  <rect x="324" y="124" width="10" height="10" fill="#111111"/>
  <rect x="334" y="124" width="10" height="10" fill="#111111"/>
  <rect x="344" y="124" width="10" height="10" fill="#111111"/>
  <rect x="144" y="134" width="10" height="10" fill="#111111"/>
  <rect x="154" y="134" width="10" height="10" fill="#111111"/>
  <rect x="174" y="134" width="10" height="10" fill="#111111"/>
  <rect x="184" y="134" width="10" height="10" fill="#111111"/>
  <rect x="214" y="134" width="10" height="10" fill="#111111"/>
  <rect x="224" y="134" width="10" height="10" fill="#111111"/>
  <rect x="234" y="134" width="10" height="10" fill="#111111"/>
  <rect x="244" y="134" width="10" height="10" fill="#111111"/>
  <rect x="254" y="134" width="10" height="10" fill="#111111"/>
  <rect x="64" y="144" width="10" height="10" fill="#111111"/>
  <rect x="84" y="144" width="10" height="10" fill="#111111"/>
  <rect x="94" y="144" width="10" height="10" fill="#111111"/>
  <rect x="114" y="144" width="10" height="10" fill="#111111"/>
  <rect x="124" y="144" width="10" height="10" fill="#111111"/>
  <rect x="134" y="144" width="10" height="10" fill="#111111"/>
  <rect x="154" y="144" width="10" height="10" fill="#111111"/>
  <rect x="164" y="144" width="10" height="10" fill="#111111"/>
  <rect x="174" y="144" width="10" height="10" fill="#111111"/>
  <rect x="194" y="144" width="10" height="10" fill="#111111"/>
  <rect x="214" y="144" width="10" height="10" fill="#111111"/>
  <rect x="234" y="144" width="10" height="10" fill="#111111"/>
  <rect x="244" y="144" width="10" height="10" fill="#111111"/>
  <rect x="284" y="144" width="10" height="10" fill="#111111"/>
  <rect x="314" y="144" width="10" height="10" fill="#111111"/>
  <rect x="334" y="144" width="10" height="10" fill="#111111"/>
  <rect x="344" y="144" width="10" height="10" fill="#111111"/>
  <rect x="74" y="154" width="10" height="10" fill="#111111"/>
  <rect x="94" y="154" width="10" height="10" fill="#111111"/>
  <rect x="174" y="154" width="10" height="10" fill="#111111"/>
  <rect x="194" y="154" width="10" height="10" fill="#111111"/>
  <rect x="204" y="154" width="10" height="10" fill="#111111"/>
  <rect x="214" y="154" width="10" height="10" fill="#111111"/>
  <rect x="244" y="154" width="10" height="10" fill="#111111"/>
  <rect x="254" y="154" width="10" height="10" fill="#111111"/>
  <rect x="264" y="154" width="10" height="10" fill="#111111"/>
  <rect x="284" y="154" width="10" height="10" fill="#111111"/>
  <rect x="304" y="154" width="10" height="10" fill="#111111"/>
  <rect x="314" y="154" width="10" height="10" fill="#111111"/>
  <rect x="324" y="154" width="10" height="10" fill="#111111"/>
  <rect x="64" y="164" width="10" height="10" fill="#111111"/>
  <rect x="74" y="164" width="10" height="10" fill="#111111"/>
  <rect x="104" y="164" width="10" height="10" fill="#111111"/>
  <rect x="124" y="164" width="10" height="10" fill="#111111"/>
  <rect x="134" y="164" width="10" height="10" fill="#111111"/>
  <rect x="144" y="164" width="10" height="10" fill="#111111"/>
  <rect x="174" y="164" width="10" height="10" fill="#111111"/>
  <rect x="194" y="164" width="10" height="10" fill="#111111"/>
  <rect x="224" y="164" width="10" height="10" fill="#111111"/>
  <rect x="234" y="164" width="10" height="10" fill="#111111"/>
  <rect x="294" y="164" width="10" height="10" fill="#111111"/>
  <rect x="314" y="164" width="10" height="10" fill="#111111"/>
  <rect x="334" y="164" width="10" height="10" fill="#111111"/>
  <rect x="64" y="174" width="10" height="10" fill="#111111"/>
  <rect x="74" y="174" width="10" height="10" fill="#111111"/>
  <rect x="94" y="174" width="10" height="10" fill="#111111"/>
  <rect x="104" y="174" width="10" height="10" fill="#111111"/>
  <rect x="154" y="174" width="10" height="10" fill="#111111"/>
  <rect x="164" y="174" width="10" height="10" fill="#111111"/>
  <rect x="174" y="174" width="10" height="10" fill="#111111"/>
  <rect x="224" y="174" width="10" height="10" fill="#111111"/>
  <rect x="244" y="174" width="10" height="10" fill="#111111"/>
  <rect x="264" y="174" width="10" height="10" fill="#111111"/>
  <rect x="274" y="174" width="10" height="10" fill="#111111"/>
  <rect x="284" y="174" width="10" height="10" fill="#111111"/>
  <rect x="344" y="174" width="10" height="10" fill="#111111"/>
  <rect x="124" y="184" width="10" height="10" fill="#111111"/>
  <rect x="134" y="184" width="10" height="10" fill="#111111"/>
  <rect x="174" y="184" width="10" height="10" fill="#111111"/>
  <rect x="204" y="184" width="10" height="10" fill="#111111"/>
  <rect x="214" y="184" width="10" height="10" fill="#111111"/>
  <rect x="234" y="184" width="10" height="10" fill="#111111"/>
  <rect x="274" y="184" width="10" height="10" fill="#111111"/>
  <rect x="294" y="184" width="10" height="10" fill="#111111"/>
  <rect x="334" y="184" width="10" height="10" fill="#111111"/>
  <rect x="64" y="194" width="10" height="10" fill="#111111"/>
  <rect x="74" y="194" width="10" height="10" fill="#111111"/>
  <rect x="84" y="194" width="10" height="10" fill="#111111"/>
  <rect x="104" y="194" width="10" height="10" fill="#111111"/>
  <rect x="114" y="194" width="10" height="10" fill="#111111"/>
  <rect x="134" y="194" width="10" height="10" fill="#111111"/>
  <rect x="154" y="194" width="10" height="10" fill="#111111"/>
  <rect x="174" y="194" width="10" height="10" fill="#111111"/>
  <rect x="184" y="194" width="10" height="10" fill="#111111"/>
  <rect x="204" y="194" width="10" height="10" fill="#111111"/>
  <rect x="224" y="194" width="10" height="10" fill="#111111"/>
  <rect x="284" y="194" width="10" height="10" fill="#111111"/>
  <rect x="294" y="194" width="10" height="10" fill="#111111"/>
  <rect x="314" y="194" width="10" height="10" fill="#111111"/>
  <rect x="324" y="194" width="10" height="10" fill="#111111"/>
  <rect x="334" y="194" width="10" height="10" fill="#111111"/>
  <rect x="74" y="204" width="10" height="10" fill="#111111"/>
  <rect x="84" y="204" width="10" height="10" fill="#111111"/>
  <rect x="104" y="204" width="10" height="10" fill="#111111"/>
  <rect x="124" y="204" width="10" height="10" fill="#111111"/>
  <rect x="164" y="204" width="10" height="10" fill="#111111"/>
  <rect x="174" y="204" width="10" height="10" fill="#111111"/>
  <rect x="194" y="204" width="10" height="10" fill="#111111"/>
  <rect x="214" y="204" width="10" height="10" fill="#111111"/>
  <rect x="224" y="204" width="10" height="10" fill="#111111"/>
  <rect x="244" y="204" width="10" height="10" fill="#111111"/>
  <rect x="254" y="204" width="10" height="10" fill="#111111"/>
  <rect x="274" y="204" width="10" height="10" fill="#111111"/>
  <rect x="294" y="204" width="10" height="10" fill="#111111"/>
  <rect x="324" y="204" width="10" height="10" fill="#111111"/>
  <rect x="334" y="204" width="10" height="10" fill="#111111"/>
  <rect x="344" y="204" width="10" height="10" fill="#111111"/>
  <rect x="84" y="214" width="10" height="10" fill="#111111"/>
  <rect x="94" y="214" width="10" height="10" fill="#111111"/>
  <rect x="104" y="214" width="10" height="10" fill="#111111"/>
  <rect x="134" y="214" width="10" height="10" fill="#111111"/>
  <rect x="154" y="214" width="10" height="10" fill="#111111"/>
  <rect x="174" y="214" width="10" height="10" fill="#111111"/>
  <rect x="204" y="214" width="10" height="10" fill="#111111"/>
  <rect x="224" y="214" width="10" height="10" fill="#111111"/>
  <rect x="254" y="214" width="10" height="10" fill="#111111"/>
  <rect x="294" y="214" width="10" height="10" fill="#111111"/>
  <rect x="304" y="214" width="10" height="10" fill="#111111"/>
  <rect x="314" y="214" width="10" height="10" fill="#111111"/>
  <rect x="334" y="214" width="10" height="10" fill="#111111"/>
  <rect x="84" y="224" width="10" height="10" fill="#111111"/>
  <rect x="94" y="224" width="10" height="10" fill="#111111"/>
  <rect x="104" y="224" width="10" height="10" fill="#111111"/>
  <rect x="114" y="224" width="10" height="10" fill="#111111"/>
  <rect x="124" y="224" width="10" height="10" fill="#111111"/>
  <rect x="134" y="224" width="10" height="10" fill="#111111"/>
  <rect x="144" y="224" width="10" height="10" fill="#111111"/>
  <rect x="204" y="224" width="10" height="10" fill="#111111"/>
  <rect x="214" y="224" width="10" height="10" fill="#111111"/>
  <rect x="244" y="224" width="10" height="10" fill="#111111"/>
  <rect x="254" y="224" width="10" height="10" fill="#111111"/>
  <rect x="294" y="224" width="10" height="10" fill="#111111"/>
  <rect x="324" y="224" width="10" height="10" fill="#111111"/>
  <rect x="334" y="224" width="10" height="10" fill="#111111"/>
  <rect x="74" y="234" width="10" height="10" fill="#111111"/>
  <rect x="94" y="234" width="10" height="10" fill="#111111"/>
  <rect x="114" y="234" width="10" height="10" fill="#111111"/>
  <rect x="144" y="234" width="10" height="10" fill="#111111"/>
  <rect x="154" y="234" width="10" height="10" fill="#111111"/>
  <rect x="164" y="234" width="10" height="10" fill="#111111"/>
  <rect x="174" y="234" width="10" height="10" fill="#111111"/>
  <rect x="204" y="234" width="10" height="10" fill="#111111"/>
  <rect x="224" y="234" width="10" height="10" fill="#111111"/>
  <rect x="274" y="234" width="10" height="10" fill="#111111"/>
  <rect x="294" y="234" width="10" height="10" fill="#111111"/>
  <rect x="314" y="234" width="10" height="10" fill="#111111"/>
  <rect x="334" y="234" width="10" height="10" fill="#111111"/>
  <rect x="344" y="234" width="10" height="10" fill="#111111"/>
  <rect x="64" y="244" width="10" height="10" fill="#111111"/>
  <rect x="104" y="244" width="10" height="10" fill="#111111"/>
  <rect x="124" y="244" width="10" height="10" fill="#111111"/>
  <rect x="134" y="244" width="10" height="10" fill="#111111"/>
  <rect x="164" y="244" width="10" height="10" fill="#111111"/>
  <rect x="174" y="244" width="10" height="10" fill="#111111"/>
  <rect x="194" y="244" width="10" height="10" fill="#111111"/>
  <rect x="204" y="244" width="10" height="10" fill="#111111"/>
  <rect x="214" y="244" width="10" height="10" fill="#111111"/>
  <rect x="224" y="244" width="10" height="10" fill="#111111"/>
  <rect x="244" y="244" width="10" height="10" fill="#111111"/>
  <rect x="274" y="244" width="10" height="10" fill="#111111"/>
  <rect x="314" y="244" width="10" height="10" fill="#111111"/>
  <rect x="104" y="254" width="10" height="10" fill="#111111"/>
  <rect x="154" y="254" width="10" height="10" fill="#111111"/>
  <rect x="164" y="254" width="10" height="10" fill="#111111"/>
  <rect x="174" y="254" width="10" height="10" fill="#111111"/>
  <rect x="194" y="254" width="10" height="10" fill="#111111"/>
  <rect x="204" y="254" width="10" height="10" fill="#111111"/>
  <rect x="234" y="254" width="10" height="10" fill="#111111"/>
  <rect x="244" y="254" width="10" height="10" fill="#111111"/>
  <rect x="254" y="254" width="10" height="10" fill="#111111"/>
  <rect x="264" y="254" width="10" height="10" fill="#111111"/>
  <rect x="294" y="254" width="10" height="10" fill="#111111"/>
  <rect x="304" y="254" width="10" height="10" fill="#111111"/>
  <rect x="314" y="254" width="10" height="10" fill="#111111"/>
  <rect x="324" y="254" width="10" height="10" fill="#111111"/>
  <rect x="74" y="264" width="10" height="10" fill="#111111"/>
  <rect x="94" y="264" width="10" height="10" fill="#111111"/>
  <rect x="104" y="264" width="10" height="10" fill="#111111"/>
  <rect x="114" y="264" width="10" height="10" fill="#111111"/>
  <rect x="124" y="264" width="10" height="10" fill="#111111"/>
  <rect x="134" y="264" width="10" height="10" fill="#111111"/>
  <rect x="144" y="264" width="10" height="10" fill="#111111"/>
  <rect x="164" y="264" width="10" height="10" fill="#111111"/>
  <rect x="174" y="264" width="10" height="10" fill="#111111"/>
  <rect x="194" y="264" width="10" height="10" fill="#111111"/>
  <rect x="204" y="264" width="10" height="10" fill="#111111"/>
  <rect x="234" y="264" width="10" height="10" fill="#111111"/>
  <rect x="264" y="264" width="10" height="10" fill="#111111"/>
  <rect x="274" y="264" width="10" height="10" fill="#111111"/>
  <rect x="284" y="264" width="10" height="10" fill="#111111"/>
  <rect x="294" y="264" width="10" height="10" fill="#111111"/>
  <rect x="304" y="264" width="10" height="10" fill="#111111"/>
  <rect x="144" y="274" width="10" height="10" fill="#111111"/>
  <rect x="174" y="274" width="10" height="10" fill="#111111"/>
  <rect x="234" y="274" width="10" height="10" fill="#111111"/>
  <rect x="254" y="274" width="10" height="10" fill="#111111"/>
  <rect x="264" y="274" width="10" height="10" fill="#111111"/>
  <rect x="304" y="274" width="10" height="10" fill="#111111"/>
  <rect x="314" y="274" width="10" height="10" fill="#111111"/>
  <rect x="334" y="274" width="10" height="10" fill="#111111"/>
  <rect x="64" y="284" width="10" height="10" fill="#111111"/>
  <rect x="74" y="284" width="10" height="10" fill="#111111"/>
  <rect x="84" y="284" width="10" height="10" fill="#111111"/>
  <rect x="94" y="284" width="10" height="10" fill="#111111"/>
  <rect x="104" y="284" width="10" height="10" fill="#111111"/>
  <rect x="114" y="284" width="10" height="10" fill="#111111"/>
  <rect x="124" y="284" width="10" height="10" fill="#111111"/>
  <rect x="144" y="284" width="10" height="10" fill="#111111"/>
  <rect x="154" y="284" width="10" height="10" fill="#111111"/>
  <rect x="174" y="284" width="10" height="10" fill="#111111"/>
  <rect x="184" y="284" width="10" height="10" fill="#111111"/>
  <rect x="204" y="284" width="10" height="10" fill="#111111"/>
  <rect x="254" y="284" width="10" height="10" fill="#111111"/>
  <rect x="264" y="284" width="10" height="10" fill="#111111"/>
  <rect x="284" y="284" width="10" height="10" fill="#111111"/>
  <rect x="304" y="284" width="10" height="10" fill="#111111"/>
  <rect x="324" y="284" width="10" height="10" fill="#111111"/>
  <rect x="334" y="284" width="10" height="10" fill="#111111"/>
  <rect x="64" y="294" width="10" height="10" fill="#111111"/>
  <rect x="124" y="294" width="10" height="10" fill="#111111"/>
  <rect x="144" y="294" width="10" height="10" fill="#111111"/>
  <rect x="174" y="294" width="10" height="10" fill="#111111"/>
  <rect x="184" y="294" width="10" height="10" fill="#111111"/>
  <rect x="194" y="294" width="10" height="10" fill="#111111"/>
  <rect x="204" y="294" width="10" height="10" fill="#111111"/>
  <rect x="224" y="294" width="10" height="10" fill="#111111"/>
  <rect x="254" y="294" width="10" height="10" fill="#111111"/>
  <rect x="264" y="294" width="10" height="10" fill="#111111"/>
  <rect x="304" y="294" width="10" height="10" fill="#111111"/>
  <rect x="344" y="294" width="10" height="10" fill="#111111"/>
  <rect x="64" y="304" width="10" height="10" fill="#111111"/>
  <rect x="84" y="304" width="10" height="10" fill="#111111"/>
  <rect x="94" y="304" width="10" height="10" fill="#111111"/>
  <rect x="104" y="304" width="10" height="10" fill="#111111"/>
  <rect x="124" y="304" width="10" height="10" fill="#111111"/>
  <rect x="214" y="304" width="10" height="10" fill="#111111"/>
  <rect x="224" y="304" width="10" height="10" fill="#111111"/>
  <rect x="234" y="304" width="10" height="10" fill="#111111"/>
  <rect x="244" y="304" width="10" height="10" fill="#111111"/>
  <rect x="264" y="304" width="10" height="10" fill="#111111"/>
  <rect x="274" y="304" width="10" height="10" fill="#111111"/>
  <rect x="284" y="304" width="10" height="10" fill="#111111"/>
  <rect x="294" y="304" width="10" height="10" fill="#111111"/>
  <rect x="304" y="304" width="10" height="10" fill="#111111"/>
  <rect x="334" y="304" width="10" height="10" fill="#111111"/>
  <rect x="64" y="314" width="10" height="10" fill="#111111"/>
  <rect x="84" y="314" width="10" height="10" fill="#111111"/>
  <rect x="94" y="314" width="10" height="10" fill="#111111"/>
  <rect x="104" y="314" width="10" height="10" fill="#111111"/>
  <rect x="124" y="314" width="10" height="10" fill="#111111"/>
  <rect x="144" y="314" width="10" height="10" fill="#111111"/>
  <rect x="154" y="314" width="10" height="10" fill="#111111"/>
  <rect x="184" y="314" width="10" height="10" fill="#111111"/>
  <rect x="194" y="314" width="10" height="10" fill="#111111"/>
  <rect x="214" y="314" width="10" height="10" fill="#111111"/>
  <rect x="244" y="314" width="10" height="10" fill="#111111"/>
  <rect x="254" y="314" width="10" height="10" fill="#111111"/>
  <rect x="264" y="314" width="10" height="10" fill="#111111"/>
  <rect x="304" y="314" width="10" height="10" fill="#111111"/>
  <rect x="314" y="314" width="10" height="10" fill="#111111"/>
  <rect x="324" y="314" width="10" height="10" fill="#111111"/>
  <rect x="344" y="314" width="10" height="10" fill="#111111"/>
  <rect x="64" y="324" width="10" height="10" fill="#111111"/>
  <rect x="84" y="324" width="10" height="10" fill="#111111"/>
  <rect x="94" y="324" width="10" height="10" fill="#111111"/>
  <rect x="104" y="324" width="10" height="10" fill="#111111"/>
  <rect x="124" y="324" width="10" height="10" fill="#111111"/>
  <rect x="144" y="324" width="10" height="10" fill="#111111"/>
  <rect x="164" y="324" width="10" height="10" fill="#111111"/>
  <rect x="194" y="324" width="10" height="10" fill="#111111"/>
  <rect x="204" y="324" width="10" height="10" fill="#111111"/>
  <rect x="234" y="324" width="10" height="10" fill="#111111"/>
  <rect x="254" y="324" width="10" height="10" fill="#111111"/>
  <rect x="274" y="324" width="10" height="10" fill="#111111"/>
  <rect x="344" y="324" width="10" height="10" fill="#111111"/>
  <rect x="64" y="334" width="10" height="10" fill="#111111"/>
  <rect x="124" y="334" width="10" height="10" fill="#111111"/>
  <rect x="164" y="334" width="10" height="10" fill="#111111"/>
  <rect x="174" y="334" width="10" height="10" fill="#111111"/>
  <rect x="184" y="334" width="10" height="10" fill="#111111"/>
  <rect x="204" y="334" width="10" height="10" fill="#111111"/>
  <rect x="214" y="334" width="10" height="10" fill="#111111"/>
  <rect x="224" y="334" width="10" height="10" fill="#111111"/>
  <rect x="244" y="334" width="10" height="10" fill="#111111"/>
  <rect x="254" y="334" width="10" height="10" fill="#111111"/>
  <rect x="264" y="334" width="10" height="10" fill="#111111"/>
  <rect x="274" y="334" width="10" height="10" fill="#111111"/>
  <rect x="334" y="334" width="10" height="10" fill="#111111"/>
  <rect x="64" y="344" width="10" height="10" fill="#111111"/>
  <rect x="74" y="344" width="10" height="10" fill="#111111"/>
  <rect x="84" y="344" width="10" height="10" fill="#111111"/>
  <rect x="94" y="344" width="10" height="10" fill="#111111"/>
  <rect x="104" y="344" width="10" height="10" fill="#111111"/>
  <rect x="114" y="344" width="10" height="10" fill="#111111"/>
  <rect x="124" y="344" width="10" height="10" fill="#111111"/>
  <rect x="144" y="344" width="10" height="10" fill="#111111"/>
  <rect x="154" y="344" width="10" height="10" fill="#111111"/>
  <rect x="164" y="344" width="10" height="10" fill="#111111"/>
  <rect x="174" y="344" width="10" height="10" fill="#111111"/>
  <rect x="194" y="344" width="10" height="10" fill="#111111"/>
  <rect x="204" y="344" width="10" height="10" fill="#111111"/>
  <rect x="234" y="344" width="10" height="10" fill="#111111"/>
  <rect x="244" y="344" width="10" height="10" fill="#111111"/>
  <rect x="264" y="344" width="10" height="10" fill="#111111"/>
  <rect x="274" y="344" width="10" height="10" fill="#111111"/>
  <rect x="294" y="344" width="10" height="10" fill="#111111"/>
  <rect x="304" y="344" width="10" height="10" fill="#111111"/>
  <rect x="314" y="344" width="10" height="10" fill="#111111"/>
  <rect x="334" y="344" width="10" height="10" fill="#111111"/>
</svg>
